<?xml version="1.0" standalone="no"?><!DOCTYPE svg PUBLIC "-//W3C//DTD SVG 1.1//EN" "http://www.w3.org/Graphics/SVG/1.1/DTD/svg11.dtd"><svg t="1536339668318" class="icon" style="" viewBox="0 0 1024 1024" version="1.1" xmlns="http://www.w3.org/2000/svg" p-id="5609" xmlns:xlink="http://www.w3.org/1999/xlink" width="256" height="256"><defs><style type="text/css"></style></defs><path d="M1024 657.55136c0-82.08384-56.66816-150.89664-132.99712-169.472-3.23584-128.69632-108.46208-232.05888-237.85472-232.05888-75.79648 0-143.2576 35.49184-186.85952 90.7264-24.43264-31.60064-62.68928-51.95776-105.71776-51.95776-73.80992 0-133.632 59.88352-133.632 133.71392 0 6.43072 0.47104 12.75904 1.37216 18.944-11.22304-2.02752-22.77376-3.13344-34.57024-3.13344-107.008 0-193.7408 86.79424-193.7408 193.8432s86.7328 193.8432 193.72032 193.8432l656.26112-0.02048c96.13312-0.18432 173.99808-78.21312 173.99808-174.44864z" p-id="5610" fill="#1296db"></path></svg>